<?xml version="1.0" encoding="UTF-8"?>
<svg version="1.1" xmlns="http://www.w3.org/2000/svg" width="1080" height="1080">
<path d="M0 0 C356.4 0 712.8 0 1080 0 C1080 356.4 1080 712.8 1080 1080 C723.6 1080 367.2 1080 0 1080 C0 723.6 0 367.2 0 0 Z " fill="#000000" transform="translate(0,0)"/>
<path d="M0 0 C2.16150448 -0.0063917 4.32299772 -0.02061878 6.48440552 -0.04203796 C12.33251569 -0.07698983 18.17429543 -0.00024757 24.02147126 0.09892917 C30.16714614 0.18586819 36.31272656 0.17545114 42.45890808 0.17750549 C52.79025542 0.19506547 63.11920936 0.28078984 73.44970703 0.41210938 C85.33892158 0.56287195 97.22602747 0.62834143 109.11614305 0.64232391 C121.83366533 0.65749464 134.55045171 0.7261956 147.26765227 0.8153584 C150.90119646 0.83797717 154.53469128 0.85191259 158.16828346 0.86425591 C163.92036951 0.88714658 169.67103497 0.94700823 175.42250443 1.03350639 C177.51390072 1.05996459 179.60547648 1.07536638 181.69703865 1.07785416 C197.00366653 1.10787221 210.14133383 3.97237596 224.53198242 9.15454102 C225.21032281 9.39847528 225.88866319 9.64240955 226.58755934 9.89373577 C253.63142167 19.77217962 274.53514025 42.14541498 286.78198242 67.65454102 C293.48737478 82.81455853 295.89087406 97.71088423 295.78198242 114.21704102 C295.7897168 115.39331055 295.79745117 116.56958008 295.80541992 117.78149414 C295.78204656 128.35209679 294.57953127 138.4353477 290.96948242 148.40454102 C290.7169873 149.11126953 290.46449219 149.81799805 290.2043457 150.54614258 C286.87924804 159.42488176 282.4258158 168.64863349 276.19604492 175.85766602 C274.34117024 177.94122504 274.34117024 177.94122504 274.54370117 180.07641602 C275.93500744 183.00200864 277.60079462 185.67416531 279.34448242 188.40454102 C284.15812576 195.95464577 287.8600319 203.45040068 290.65698242 211.96704102 C290.90834961 212.69729492 291.1597168 213.42754883 291.41870117 214.17993164 C294.88112873 224.59440615 295.9220764 234.70838927 295.90698242 245.65454102 C295.90456543 247.49242187 295.90456543 247.49242187 295.90209961 249.36743164 C295.76368503 259.71867092 294.36671368 269.22285756 291.53198242 279.15454102 C291.24323242 280.24250977 290.95448242 281.33047852 290.65698242 282.45141602 C282.38171835 310.38043226 260.74862138 332.63573431 235.78198242 346.40454102 C234.94570313 346.88793945 234.10942383 347.37133789 233.24780273 347.86938477 C213.63412874 358.22597212 191.42817205 359.0439597 169.76018703 358.85093474 C166.02303987 358.82451802 162.28593584 358.83382708 158.54872131 358.83834839 C152.1052526 358.84146328 145.6621542 358.82297061 139.21877861 358.78892136 C129.90331721 358.73972751 120.58803109 358.72448911 111.27245391 358.71699341 C96.15109878 358.70392845 81.02994013 358.66418233 65.90869141 358.60717773 C51.23780282 358.55192914 36.566968 358.50954451 21.89599609 358.48413086 C20.98854353 358.48255452 20.08109097 358.48097818 19.14613985 358.47935407 C14.59278024 358.47152267 10.03942026 358.46394071 5.48606002 358.45648265 C-32.16543775 358.39449087 -69.81671223 358.28899657 -107.46801758 358.15454102 C-106.55832031 353.87453769 -104.43015682 350.60868146 -102.09301758 346.96704102 C-101.64966064 346.26724121 -101.20630371 345.56744141 -100.74951172 344.84643555 C-99.32960468 342.61106991 -97.90051827 340.38185477 -96.46801758 338.15454102 C-96.00476074 337.43411621 -95.54150391 336.71369141 -95.06420898 335.97143555 C-92.30788773 331.69211359 -89.5377157 327.42188744 -86.7644043 323.15356445 C-84.82295843 320.15986224 -82.8949017 317.15762881 -80.96801758 314.15454102 C-78.6157077 310.48891067 -76.25779163 306.82712697 -73.88598633 303.17407227 C-73.46392764 302.52156752 -73.04186896 301.86906277 -72.60702062 301.19678515 C-71.68764373 299.78447311 -70.76043614 298.37720213 -69.82261157 296.97707206 C-67.28714473 293.15237217 -65.0163318 289.34611593 -63.01643753 285.21352673 C-56.72088732 272.78549786 -56.72088732 272.78549786 -51.3185339 270.07681108 C-45.22475597 268.38451366 -38.9960633 268.77047051 -32.73657227 268.99755859 C-30.65601598 269.00292574 -28.57542377 268.99989444 -26.49488831 268.989151 C-20.87481506 268.98372167 -15.26252286 269.09499703 -9.64425182 269.22805619 C-3.76301792 269.34723979 2.11841622 269.35802281 8.00067139 269.38053894 C19.12613927 269.43947905 30.24803868 269.59522187 41.37193847 269.78617924 C54.04136094 269.99892265 66.71095849 270.10310687 79.38172388 270.19839251 C105.43385209 270.39672881 131.48256618 270.73453305 157.53198242 271.15454102 C157.53198242 278.41454102 157.53198242 285.67454102 157.53198242 293.15454102 C167.60548539 287.13842119 177.66615341 281.11961684 187.59716797 274.87133789 C192.4871137 271.79748318 197.41000001 268.78127989 202.34448242 265.77954102 C205.40933586 263.90836734 208.47135176 262.03261298 211.53198242 260.15454102 C212.4054834 259.61909668 213.27898437 259.08365234 214.17895508 258.53198242 C216.84342117 256.89345312 219.50099349 255.24426823 222.15698242 253.59204102 C222.99334229 253.07915527 223.82970215 252.56626953 224.69140625 252.0378418 C225.45606201 251.55943848 226.22071777 251.08103516 227.00854492 250.58813477 C227.68997559 250.16588623 228.37140625 249.7436377 229.07348633 249.30859375 C229.55479004 248.92775635 230.03609375 248.54691895 230.53198242 248.15454102 C230.53198242 247.49454102 230.53198242 246.83454102 230.53198242 246.15454102 C229.01919277 244.9760321 229.01919277 244.9760321 227.00073242 243.86157227 C226.22213867 243.40395508 225.44354492 242.94633789 224.64135742 242.47485352 C223.78026367 241.97727539 222.91916992 241.47969727 222.03198242 240.96704102 C220.18699127 239.88190894 218.34329544 238.79457223 216.50073242 237.70532227 C215.03700195 236.84028076 215.03700195 236.84028076 213.54370117 235.95776367 C208.49194301 232.93309719 203.51422297 229.79193964 198.53198242 226.65454102 C190.15578996 221.38889059 181.73261005 216.21751427 173.21362305 211.18579102 C167.84560297 208.00098117 162.74414939 204.62931899 157.53198242 201.15454102 C157.53198242 208.74454102 157.53198242 216.33454102 157.53198242 224.15454102 C98.46198242 224.15454102 39.39198242 224.15454102 -21.46801758 224.15454102 C-20.60253985 220.69263012 -19.9161772 218.98939295 -18.06176758 216.09985352 C-17.32398071 214.94138916 -17.32398071 214.94138916 -16.57128906 213.75952148 C-16.04220947 212.94112793 -15.51312988 212.12273437 -14.96801758 211.27954102 C-14.42411377 210.4289209 -13.88020996 209.57830078 -13.31982422 208.7019043 C-11.70755434 206.18286596 -10.08828142 203.66844229 -8.46801758 201.15454102 C-7.6640991 199.89967403 -6.86065361 198.64450378 -6.05786133 197.38891602 C-3.86893072 193.9724363 -1.670545 190.56226012 0.53198242 187.15454102 C0.9423877 186.5190332 1.35279297 185.88352539 1.77563477 185.22875977 C7.72456415 176.0180912 13.69324227 166.82032992 19.67749023 157.63256836 C20.17861328 156.86251465 20.67973633 156.09246094 21.19604492 155.29907227 C21.71678085 154.55134048 22.23751678 153.8036087 22.77403259 153.03321838 C24.66173841 150.14753162 24.66173841 150.14753162 25.84199524 146.63771057 C27.60654064 142.31813693 29.6038796 138.8164407 33.53198242 136.15454102 C41.81197602 133.66534375 50.94288736 134.48035675 59.48373532 134.73502588 C62.93465166 134.82302042 66.38576618 134.83080371 69.83763123 134.84738159 C76.36254259 134.89076304 82.88413913 135.00544455 89.40759557 135.14627445 C96.83887322 135.30319218 104.27031601 135.37983815 111.70283997 135.45001054 C126.98146314 135.59604508 142.25552431 135.85258883 157.53198242 136.15454102 C157.53198242 143.74454102 157.53198242 151.33454102 157.53198242 159.15454102 C158.99764648 158.23415039 160.46331055 157.31375977 161.97338867 156.36547852 C173.2880903 149.27098763 184.63397072 142.2361764 196.05322266 135.31103516 C203.6618367 130.69407794 211.23590853 126.02319587 218.79638672 121.32788086 C222.69216067 118.90890848 226.58897541 116.49620436 230.53198242 114.15454102 C229.37365818 110.67956828 228.84129933 110.45400532 225.79760742 108.69360352 C225.00725098 108.22921875 224.21689453 107.76483398 223.40258789 107.28637695 C222.10538818 106.54049316 222.10538818 106.54049316 220.78198242 105.77954102 C218.93481126 104.69499381 217.08848203 103.60901159 215.24291992 102.52172852 C213.81544434 101.68399902 213.81544434 101.68399902 212.35913086 100.8293457 C208.00344879 98.24903664 203.70428329 95.58059502 199.40698242 92.90454102 C197.67534885 91.8287992 195.94357384 90.75328502 194.21166992 89.67797852 C192.85960449 88.83831543 192.85960449 88.83831543 191.48022461 87.98168945 C186.41902917 84.84505591 181.34837559 81.72379088 176.27716064 78.60339355 C174.56749254 77.55139129 172.85808431 76.49896672 171.14868164 75.4465332 C170.0995459 74.80103516 169.05041016 74.15553711 167.96948242 73.49047852 C167.04006836 72.91861816 166.1106543 72.34675781 165.15307617 71.75756836 C162.62126837 70.20914716 160.07682423 68.6814461 157.53198242 67.15454102 C157.53198242 74.41454102 157.53198242 81.67454102 157.53198242 89.15454102 C125.85198242 89.15454102 94.17198242 89.15454102 61.53198242 89.15454102 C60.87198242 90.80454102 60.21198242 92.45454102 59.53198242 94.15454102 C58.76193025 95.45582655 57.94979433 96.73309297 57.09838867 97.98266602 C56.38150879 99.04432983 56.38150879 99.04432983 55.65014648 100.12744141 C55.13677734 100.87888428 54.6234082 101.63032715 54.09448242 102.40454102 C52.99590445 104.03282577 51.89826776 105.66174595 50.80151367 107.29125977 C50.24931152 108.11029785 49.69710938 108.92933594 49.12817383 109.77319336 C46.81014313 113.2314484 44.53941995 116.71901815 42.28198242 120.21704102 C41.62975708 121.2274646 41.62975708 121.2274646 40.96435547 122.25830078 C33.64587985 133.61795486 26.37359469 145.00759629 19.1003418 156.39624023 C14.60794502 163.43020165 10.04327537 170.41028206 5.39941406 177.3449707 C0.83341182 184.17509904 -3.61767199 191.07837823 -8.06811523 197.98413086 C-9.94061658 200.88725904 -11.81871014 203.78674985 -13.69677734 206.6862793 C-17.46389059 212.50261256 -21.22364587 218.32354069 -24.96801758 224.15454102 C-32.81076823 236.36622477 -40.71435933 248.53841389 -48.62670898 260.70507812 C-53.92027068 268.84642213 -59.19587509 276.99931622 -64.46801758 285.15454102 C-66.25940618 287.92555427 -68.05103587 290.69641128 -69.84301758 293.46704102 C-70.28887207 294.15644775 -70.73472656 294.84585449 -71.1940918 295.55615234 C-74.29287004 300.34512327 -77.4011162 305.12787047 -80.51245117 309.90869141 C-84.97131602 316.76038252 -89.4226518 323.61507723 -93.79614258 330.52172852 C-100.52482399 341.11782961 -100.52482399 341.11782961 -103.22090816 345.12914562 C-104.56256734 347.22409538 -104.56256734 347.22409538 -105.7545023 349.88309956 C-109.70702931 357.541577 -109.70702931 357.541577 -114.34094048 359.15454674 C-117.97427864 359.5116999 -121.46478608 359.51573198 -125.11425781 359.40332031 C-126.49458059 359.40021395 -127.87492152 359.40196615 -129.25523376 359.40818787 C-132.98771365 359.41133436 -136.71627625 359.34684818 -140.44784808 359.26987433 C-144.35272822 359.20093325 -148.25770639 359.19463496 -152.1631012 359.18159485 C-159.55150187 359.14745505 -166.93810417 359.05726216 -174.32571417 358.94675046 C-182.73900451 358.82363787 -191.15238248 358.76327916 -199.56634986 358.70810068 C-216.86794466 358.59323602 -234.16779077 358.39985897 -251.46801758 358.15454102 C-250.66775838 356.70708476 -249.86665201 355.26009685 -249.06518555 353.81330872 C-248.61915985 353.00746747 -248.17313416 352.20162622 -247.71359253 351.37136555 C-246.41520963 349.06055553 -245.04795097 346.81925098 -243.59301758 344.60375977 C-243.08971924 343.83370605 -242.5864209 343.06365234 -242.06787109 342.27026367 C-241.53991943 341.4689502 -241.01196777 340.66763672 -240.46801758 339.84204102 C-239.31042422 338.07253677 -238.15287331 336.30300474 -236.99536133 334.53344727 C-236.40867676 333.63899902 -235.82199219 332.74455078 -235.2175293 331.82299805 C-232.4799225 327.64744093 -229.75367823 323.46452998 -227.03051758 319.27954102 C-226.49966553 318.46420898 -225.96881348 317.64887695 -225.421875 316.80883789 C-221.33145842 310.51381024 -217.30009686 304.18247149 -213.28051758 297.84204102 C-209.44803067 291.79784315 -205.59218507 285.77740731 -201.59301758 279.84204102 C-195.69156899 271.08308815 -190.04850431 262.15818206 -184.36645508 253.25610352 C-179.85711267 246.19183103 -175.30631033 239.15496291 -170.74487305 232.12426758 C-169.45404883 230.13299228 -168.16571751 228.14012635 -166.87817383 226.14672852 C-160.89901163 216.89144919 -154.88911334 207.65661 -148.85766602 198.43530273 C-145.25325733 192.9179343 -141.69201334 187.37549657 -138.16040039 181.8112793 C-135.54089542 177.69912507 -132.88037652 173.61402958 -130.21801758 169.52954102 C-129.07724597 167.77703227 -127.93662332 166.02442656 -126.79614258 164.27172852 C-126.23475586 163.40902344 -125.67336914 162.54631836 -125.0949707 161.6574707 C-122.71341093 157.99364255 -120.34032645 154.32436293 -117.96801758 150.65454102 C-116.60372194 148.5460617 -115.23924209 146.43770168 -113.87475586 144.3293457 C-112.92201706 142.85642011 -111.96988667 141.38310083 -111.01831055 139.90942383 C-105.71944966 131.70529552 -100.39644181 123.51983168 -94.95629883 115.40844727 C-94.56784286 114.82913452 -94.1793869 114.24982178 -93.77915955 113.6529541 C-93.38845779 113.07033813 -92.99775604 112.48772217 -92.59521484 111.88745117 C-86.32311105 102.53412465 -80.1405029 93.17689023 -74.44848633 83.45532227 C-71.94883629 79.28923887 -69.255791 75.27612929 -66.53710938 71.2512207 C-62.8539451 65.7798889 -59.30869438 60.22681636 -55.78051758 54.65454102 C-50.84850721 46.87337476 -45.87486588 39.12156359 -40.84301758 31.40454102 C-40.28267822 30.5440918 -39.72233887 29.68364258 -39.14501953 28.79711914 C-37.99938186 27.04337588 -36.8334452 25.30272956 -35.64784527 23.5757513 C-33.96001882 21.03695738 -32.57638833 18.42984846 -31.21094227 15.70532322 C-23.37667403 0.98235023 -15.95816798 -0.44052672 0 0 Z " fill="#FDFDFD" transform="translate(486.468017578125,297.845458984375)"/>
<path d="M0 0 C33.625 0 33.625 0 39.8125 5.5 C43.95241737 10.23133414 44.47955805 13.01632291 44.3984375 19.1328125 C43.78039998 23.58025899 41.67390303 26.50200882 39 30 C38.67 30.66 38.34 31.32 38 32 C38.763125 32.53625 39.52625 33.0725 40.3125 33.625 C43.92176945 36.81458696 45.62075465 39.51615134 46.35546875 44.328125 C46.67063509 49.88186707 45.79595953 53.75409554 42.56640625 58.30859375 C39.32877951 61.80458472 35.4955522 63.5014826 31 65 C20.77 65 10.54 65 0 65 C0 43.55 0 22.1 0 0 Z " fill="#F3F3F3" transform="translate(348,687)"/>
<path d="M0 0 C2.568593 1.4424611 4.98423283 2.98948856 7.4375 4.625 C7.7675 2.645 8.0975 0.665 8.4375 -1.375 C10.4175 -1.375 12.3975 -1.375 14.4375 -1.375 C14.53951175 5.4201159 14.6092207 12.21503192 14.65722656 19.01074219 C14.67725417 21.31908549 14.70448439 23.62737862 14.73925781 25.93554688 C14.78816594 29.26705357 14.81055811 32.59788538 14.828125 35.9296875 C14.84877014 36.94988983 14.86941528 37.97009216 14.89068604 39.02120972 C14.89319851 47.1730963 12.92104917 53.54488351 8.6875 60.5 C2.42189578 66.4175151 -5.04039265 68.00579696 -13.42578125 67.89453125 C-21.36478516 67.21235034 -26.16372959 63.64486462 -31.25 57.72265625 C-32.73295776 55.35257197 -33.17968705 53.37646808 -33.5625 50.625 C-28.24673884 50.18928187 -28.24673884 50.18928187 -25.5625 50.625 C-24.0625 52.875 -24.0625 52.875 -22.5625 55.625 C-18.32880294 58.72838918 -13.83305755 60.33101937 -8.578125 60 C-3.99267364 59.14689277 -0.07313119 57.63191925 2.79296875 53.82421875 C5.10552062 49.52470895 6.03440739 45.46211132 6.4375 40.625 C5.90640625 40.97433594 5.3753125 41.32367187 4.828125 41.68359375 C3.76851562 42.36615234 3.76851562 42.36615234 2.6875 43.0625 C1.99140625 43.51496094 1.2953125 43.96742188 0.578125 44.43359375 C-5.61403053 47.87995769 -14.22187306 47.74217775 -20.9453125 46.01171875 C-27.15620029 43.24726477 -32.14753294 38.05594018 -34.73046875 31.79296875 C-36.62154007 24.59269249 -36.97655421 16.39563275 -33.5625 9.625 C-26.09903337 -1.76102721 -12.33958706 -6.13360706 0 0 Z " fill="#F6F6F6" transform="translate(550.5625,703.375)"/>
<path d="M0 0 C6.76474955 3.96271291 11.2494216 9.72685301 13.25390625 17.3203125 C14.45120645 25.6788233 13.19561621 32.42101695 8.25390625 39.3203125 C3.26405775 44.8529897 -2.18938555 48.90553521 -9.79296875 49.59765625 C-18.22271818 49.84044857 -24.02304662 48.96940373 -30.99609375 44.0078125 C-37.22688408 37.91863104 -40.0158287 31.64020522 -40.12109375 22.9453125 C-39.99460233 15.54134834 -38.18290574 11.23094904 -33.49609375 5.6328125 C-23.41056961 -2.84819644 -12.47045455 -5.72479936 0 0 Z " fill="#F4F4F4" transform="translate(498.74609375,703.6796875)"/>
<path d="M0 0 C3.625 -0.1875 3.625 -0.1875 7 0 C12.1078546 9.72347181 16.33160818 19.7241356 20.5 29.875 C21.4635485 32.21074264 22.42836811 34.54595516 23.39379883 36.88092041 C24.02239604 38.40204974 24.64985525 39.92364989 25.27612305 41.44573975 C26.75302277 45.0272706 28.25025701 48.59686192 29.8046875 52.14550781 C30.08590454 52.7891629 30.36712158 53.43281799 30.65686035 54.09597778 C31.41669468 55.82674009 32.18367334 57.55436097 32.95117188 59.28173828 C34 62 34 62 34 65 C31.03 65 28.06 65 25 65 C24.16260219 62.8765984 23.33019717 60.7512272 22.5 58.625 C22.0359375 57.44164062 21.571875 56.25828125 21.09375 55.0390625 C20 52 20 52 20 50 C4.16 50.495 4.16 50.495 -12 51 C-13.98 55.62 -15.96 60.24 -18 65 C-20.97 65 -23.94 65 -27 65 C-23.67878593 56.66179902 -20.3437893 48.32916951 -17 40 C-16.69120911 39.23061096 -16.38241821 38.46122192 -16.06427002 37.66851807 C-14.05161151 32.65540166 -12.0343219 27.64417913 -10.01223755 22.63485718 C-9.33776981 20.96250497 -8.6644894 19.28967341 -7.99240112 17.61636353 C-7.03982802 15.24552995 -6.08293721 12.87648286 -5.125 10.5078125 C-4.83891373 9.79321365 -4.55282745 9.07861481 -4.2580719 8.34236145 C-3.03447986 5.32834862 -1.81202045 2.71803067 0 0 Z " fill="#F5F5F5" transform="translate(263,687)"/>
<path d="M0 0 C11.88 0 23.76 0 36 0 C36 2.31 36 4.62 36 7 C26.76 7 17.52 7 8 7 C8 13.6 8 20.2 8 27 C16.58 27 25.16 27 34 27 C34 29.64 34 32.28 34 35 C25.42 35 16.84 35 8 35 C8 41.93 8 48.86 8 56 C17.9 56 27.8 56 38 56 C38 58.64 38 61.28 38 64 C25.46 64 12.92 64 0 64 C0 42.88 0 21.76 0 0 Z " fill="#F9F9F9" transform="translate(303,688)"/>
<path d="M0 0 C5.16542819 5.56276882 5.29268721 9.37400142 5.2109375 16.796875 C4.85044221 22.27106281 3.00256577 25.2778959 -1 28.8125 C-6.57631284 32.87856144 -12.3181383 32.61452355 -19 32 C-24.38166436 30.33015734 -27.31593017 26.85197239 -30 22 C-31.78793044 16.63620867 -31.69055197 11.11227662 -29.9375 5.75 C-27.16472303 1.81444558 -23.72923383 -2.09570296 -19.04296875 -3.6484375 C-11.86724183 -4.88326622 -6.04910386 -4.25626991 0 0 Z " fill="#020202" transform="translate(498,713)"/>
<path d="M0 0 C2.74108769 1.74381046 4.29301163 3.35391797 5.87890625 6.1953125 C6.62890625 10.0078125 6.62890625 10.0078125 6.87890625 13.1953125 C4.23890625 13.1953125 1.59890625 13.1953125 -1.12109375 13.1953125 C-1.18296875 12.2465625 -1.24484375 11.2978125 -1.30859375 10.3203125 C-1.78186842 7.12353596 -1.78186842 7.12353596 -4.05859375 5.8203125 C-10.1553681 4.57607284 -16.4913595 4.19278757 -22.12109375 7.1953125 C-22.54155187 11.28871903 -22.54155187 11.28871903 -20.84692383 14.828125 C-17.95080636 17.12240394 -14.35694779 17.48383285 -10.80859375 18.1953125 C2.72764404 20.95161286 2.72764404 20.95161286 6.87890625 26.1953125 C8.53003079 31.14868611 8.73857763 36.1592487 6.69140625 41.0078125 C2.521671 46.0402516 -1.87509467 48.82688967 -8.390625 49.56640625 C-15.91024061 49.70734723 -21.51914183 49.57206032 -27.12109375 44.1953125 C-29.69719704 41.10398855 -31.0221057 39.33367502 -31.37109375 35.3203125 C-31.28859375 34.6190625 -31.20609375 33.9178125 -31.12109375 33.1953125 C-27.87109375 32.8203125 -27.87109375 32.8203125 -24.12109375 33.1953125 C-21.93359375 36.0703125 -21.93359375 36.0703125 -20.12109375 39.1953125 C-16.6207226 41.94560412 -12.38021334 41.60621086 -8.12109375 41.1953125 C-5.70959841 40.66850749 -3.46862938 39.97782438 -1.12109375 39.1953125 C-1.03859375 37.9371875 -0.95609375 36.6790625 -0.87109375 35.3828125 C-0.8246875 34.67511719 -0.77828125 33.96742188 -0.73046875 33.23828125 C-0.95609881 31.07563393 -0.95609881 31.07563393 -2.67578125 29.52734375 C-5.89384611 27.77437232 -8.88683722 27.30045731 -12.49609375 26.6953125 C-18.70119126 25.65076703 -23.62182876 24.2999567 -28.49609375 20.1953125 C-30.98685663 15.59698104 -30.9764598 11.30499914 -30.12109375 6.1953125 C-28.37574704 2.35709428 -25.5803058 0.47083973 -21.99609375 -1.6796875 C-14.61652797 -4.35879073 -6.90079969 -3.5306417 0 0 Z " fill="#F5F5F5" transform="translate(765.12109375,703.8046875)"/>
<path d="M0 0 C3.1874703 1.92260114 4.70803132 3.864502 6.72265625 7.0390625 C7.53515625 10.9140625 7.53515625 10.9140625 7.72265625 14.0390625 C5.41265625 14.0390625 3.10265625 14.0390625 0.72265625 14.0390625 C0.31015625 13.0903125 -0.10234375 12.1415625 -0.52734375 11.1640625 C-2.38484787 7.84709086 -2.87768155 7.31092194 -6.27734375 6.0390625 C-8.7293896 5.68784835 -8.7293896 5.68784835 -11.27734375 5.7265625 C-12.12296875 5.70980469 -12.96859375 5.69304688 -13.83984375 5.67578125 C-16.9175572 6.13447893 -18.21107612 6.69059629 -20.27734375 9.0390625 C-20.61115189 12.66470064 -20.61115189 12.66470064 -20.27734375 16.0390625 C-18.70146484 16.40257812 -18.70146484 16.40257812 -17.09375 16.7734375 C1.16002475 21.08468516 1.16002475 21.08468516 7.28515625 26.1640625 C9.95212962 31.49800923 9.41745361 36.83205912 7.66015625 42.4140625 C4.54960434 46.62835863 0.68472875 48.38503833 -4.27734375 50.0390625 C-11.99630091 50.68318888 -18.8967257 50.84809975 -25.27734375 46.0390625 C-29.16576052 42.35005172 -29.86292618 39.32288656 -30.27734375 34.0390625 C-27.63734375 34.0390625 -24.99734375 34.0390625 -22.27734375 34.0390625 C-21.86484375 34.9878125 -21.45234375 35.9365625 -21.02734375 36.9140625 C-19.17038072 40.23006791 -18.67492848 40.76572257 -15.27734375 42.0390625 C-10.70195418 42.61191615 -6.52338508 42.46271655 -2.15234375 40.9765625 C0.05574117 39.05561699 0.05574117 39.05561699 0.34765625 35.5390625 C0.11090799 31.98624338 0.11090799 31.98624338 -2.2890625 30.4375 C-6.67972558 28.38278447 -11.20403353 27.62456045 -15.95117188 26.75390625 C-21.34229554 25.63255253 -24.381959 23.97659206 -28.27734375 20.0390625 C-29.72740136 15.68888966 -29.78001605 11.58496851 -29.27734375 7.0390625 C-27.09007491 2.84679723 -23.83563178 0.69809668 -19.6171875 -1.234375 C-13.20988612 -3.22395439 -6.12685681 -2.69229437 0 0 Z " fill="#F5F5F5" transform="translate(620.27734375,702.9609375)"/>
<path d="M0 0 C4.24317949 3.12934487 6.34856588 7.11520373 8.25 11.90234375 C8.25 12.23234375 8.25 12.56234375 8.25 12.90234375 C3.08383085 13.42771688 3.08383085 13.42771688 0.25 12.90234375 C-2.3125 10.08984375 -2.3125 10.08984375 -3.4921875 8.4375 C-6.24218418 5.0811376 -10.01278445 4.12893708 -14.17578125 3.5859375 C-20.24380319 3.30049185 -23.94186283 4.15199676 -28.75 7.90234375 C-32.69139794 12.85435655 -33.39198313 16.89438651 -33.1328125 23.18359375 C-32.3431127 28.79207395 -30.21980487 32.43253888 -26.25 36.40234375 C-20.0834481 39.04515171 -13.65210271 38.85212282 -7.3125 36.77734375 C-4.53152902 34.9354882 -4.53152902 34.9354882 -2.375 31.71484375 C0.25 28.90234375 0.25 28.90234375 2.33984375 28.515625 C4.5625 28.52734375 4.5625 28.52734375 8.25 28.90234375 C6.07054804 36.66664137 2.33278329 40.92241675 -4.62890625 45.00390625 C-11.1420977 47.91376631 -18.76808755 48.16067282 -25.53125 46.0234375 C-32.55632038 42.81772014 -37.40600849 38.32352331 -40.625 31.27734375 C-43.03267623 23.79324172 -42.96212771 15.63011825 -39.6875 8.46484375 C-35.99937698 2.08314774 -31.04393072 -2.34337882 -23.98046875 -4.625 C-14.87818589 -6.55385504 -7.76011402 -4.86739295 0 0 Z " fill="#F5F5F5" transform="translate(723.75,706.09765625)"/>
<path d="M0 0 C3.93317324 3.63818525 7.07586213 6.78728852 7.73828125 12.29296875 C7.93435454 18.12356926 7.01462854 22.56184001 3.5 27.3125 C-1.60045989 31.37204971 -5.76444547 32.67684461 -12.15234375 32.59375 C-17.17279824 31.99229788 -20.46291428 29.4314609 -23.875 25.75 C-27.4340479 20.41142814 -27.07492835 14.51351294 -26.5 8.3125 C-24.5569102 3.95997884 -21.9838434 1.21429207 -17.69140625 -0.9921875 C-11.73826948 -2.88106155 -5.59388498 -2.69705169 0 0 Z " fill="#040404" transform="translate(549.5,710.6875)"/>
<path d="M0 0 C0.495 0.99 0.495 0.99 1 2 C0.67 2.66 0.34 3.32 0 4 C103.95 4.495 103.95 4.495 210 5 C210 5.33 210 5.66 210 6 C140.37 6 70.74 6 -1 6 C-1.66 7.65 -2.32 9.3 -3 11 C-4.26971572 13.1096815 -5.58803465 15.19041817 -6.9375 17.25 C-7.33445068 17.85932373 -7.73140137 18.46864746 -8.14038086 19.09643555 C-8.99131005 20.40247066 -9.84397977 21.70737314 -10.69824219 23.01123047 C-12.83164915 26.27055776 -14.94650142 29.54185512 -17.0625 32.8125 C-17.73430298 33.84938965 -17.73430298 33.84938965 -18.41967773 34.90722656 C-23.33428369 42.49970038 -28.20311452 50.12142074 -33.07177734 57.7434082 C-36.12930454 62.52714753 -39.19173178 67.30695142 -42.29296875 72.0625 C-42.78732422 72.82111328 -43.28167969 73.57972656 -43.79101562 74.36132812 C-44.67894545 75.72116472 -45.5692998 77.07942359 -46.46289062 78.43554688 C-49.5714413 83.1966172 -52.21708471 87.99075247 -55 93 C44 93 143 93 245 93 C245 93.33 245 93.66 245 94 C206.70544568 94.02287191 168.41089239 94.04050105 130.11633263 94.05106533 C125.59879531 94.05231609 121.081258 94.0536104 116.5637207 94.05493164 C115.21463853 94.05532511 115.21463853 94.05532511 113.83830217 94.05572652 C99.26154289 94.06008186 84.68478753 94.06796866 70.10803058 94.0771528 C55.1590823 94.08649311 40.21013607 94.09205641 25.26118499 94.09408849 C16.03145905 94.09546293 6.80174422 94.09980927 -2.4279783 94.10791647 C-8.75085445 94.11318858 -15.07372483 94.11480323 -21.39660303 94.11350138 C-25.04853783 94.11285873 -28.70045319 94.11386729 -32.35238457 94.11920547 C-36.30563449 94.12494213 -40.25885878 94.12299684 -44.21211243 94.12025452 C-45.9557678 94.12462378 -45.9557678 94.12462378 -47.73464853 94.12908131 C-48.78912374 94.12709026 -49.84359895 94.12509921 -50.93002796 94.12304783 C-52.29986905 94.12361741 -52.29986905 94.12361741 -53.6973837 94.1241985 C-56 94 -56 94 -59 93 C-57.49244317 88.74055371 -55.28987 85.12249371 -52.8125 81.375 C-52.06858938 80.23725435 -51.32511465 79.0992236 -50.58203125 77.9609375 C-49.9777832 77.03825073 -49.9777832 77.03825073 -49.36132812 76.09692383 C-47.77232058 73.64929366 -46.20799149 71.18668184 -44.64453125 68.72265625 C-41.09831907 63.14041679 -37.49440976 57.59747348 -33.875 52.0625 C-32.55717628 50.04434617 -31.23947017 48.02611555 -29.921875 46.0078125 C-29.26638672 45.00395508 -28.61089844 44.00009766 -27.93554688 42.96582031 C-20.55143754 31.65121888 -13.18588022 20.32496449 -5.90234375 8.9453125 C-3.96337458 5.94329452 -1.98946857 2.96869475 0 0 Z " fill="#26292C" transform="translate(434,563)"/>
<path d="M0 0 C2.64 0 5.28 0 8 0 C8 18.81 8 37.62 8 57 C17.24 57 26.48 57 36 57 C36 59.64 36 62.28 36 65 C24.12 65 12.24 65 0 65 C0 43.55 0 22.1 0 0 Z " fill="#F9F9F9" transform="translate(422,687)"/>
<path d="M0 0 C0 3.3 0 6.6 0 10 C5.28 10 10.56 10 16 10 C16 12.31 16 14.62 16 17 C10.72 17 5.44 17 0 17 C0.11385102 21.56302904 0.24061323 26.12506902 0.375 30.6875 C0.4059375 31.98107422 0.436875 33.27464844 0.46875 34.60742188 C0.50742187 35.85458984 0.54609375 37.10175781 0.5859375 38.38671875 C0.63306885 40.10701294 0.63306885 40.10701294 0.68115234 41.86206055 C0.997264 44.97307364 1.60086815 47.21523175 3 50 C5.78935402 51.94301156 8.40495794 52.32984923 11.75 52.625 C12.54921875 52.69976563 13.3484375 52.77453125 14.171875 52.8515625 C14.77515625 52.90054688 15.3784375 52.94953125 16 53 C16 55.31 16 57.62 16 60 C2.92579728 60.57120303 2.92579728 60.57120303 -2 57 C-7.0147556 51.70664686 -8.25659525 47.14994242 -8.1953125 39.94921875 C-8.19106766 38.96100883 -8.19106766 38.96100883 -8.18673706 37.95283508 C-8.17560924 35.86419938 -8.15051948 33.77600444 -8.125 31.6875 C-8.11496059 30.26498018 -8.10583642 28.8424536 -8.09765625 27.41992188 C-8.07569447 23.94647319 -8.04121646 20.47327967 -8 17 C-10.64 17 -13.28 17 -16 17 C-14.52284691 12.02384051 -11.62321342 9.20389699 -8 5.6875 C-7.4534375 5.13771484 -6.906875 4.58792969 -6.34375 4.02148438 C-2.26731366 0 -2.26731366 0 0 0 Z " fill="#F8F8F8" transform="translate(646,692)"/>
<path d="M0 0 C5.0428125 -0.0928125 5.0428125 -0.0928125 10.1875 -0.1875 C11.76374146 -0.22846802 11.76374146 -0.22846802 13.37182617 -0.27026367 C22.10553644 -0.34814602 22.10553644 -0.34814602 26 3 C28.67134463 7.00701694 28.82653281 10.28876296 28 15 C25.47031526 18.28175318 23.92268669 19.69243777 20 21 C18.44578271 21.08106686 16.88832973 21.10756898 15.33203125 21.09765625 C14.52741455 21.09515869 13.72279785 21.09266113 12.89379883 21.09008789 C11.36855591 21.07643188 11.36855591 21.07643188 9.8125 21.0625 C4.9553125 21.0315625 4.9553125 21.0315625 0 21 C0 14.07 0 7.14 0 0 Z " fill="#010101" transform="translate(357,723)"/>
<path d="M0 0 C3.196875 -0.061875 6.39375 -0.12375 9.6875 -0.1875 C11.18543091 -0.22846802 11.18543091 -0.22846802 12.71362305 -0.27026367 C18.8059701 -0.32735065 22.3146711 0.40726865 26.8125 4.75 C28.56355678 8.06779179 28.51845997 10.30597275 28 14 C25.45862841 17.15954305 23.85377341 18.71540886 20 20 C18.44578271 20.08106686 16.88832973 20.10756898 15.33203125 20.09765625 C14.52741455 20.09515869 13.72279785 20.09266113 12.89379883 20.09008789 C11.36855591 20.07643188 11.36855591 20.07643188 9.8125 20.0625 C4.9553125 20.0315625 4.9553125 20.0315625 0 20 C0 13.4 0 6.8 0 0 Z " fill="#0F0F0F" transform="translate(356,695)"/>
<path d="M0 0 C2.64 0 5.28 0 8 0 C8 16.5 8 33 8 50 C5.36 50 2.72 50 0 50 C0 33.5 0 17 0 0 Z " fill="#F4F4F4" transform="translate(667,702)"/>
<path d="M0 0 C2.64 0 5.28 0 8 0 C8 16.5 8 33 8 50 C5.36 50 2.72 50 0 50 C0 33.5 0 17 0 0 Z " fill="#F4F4F4" transform="translate(575,702)"/>
<path d="M0 0 C2.45822059 3.0191179 3.99069905 5.97998241 5.48046875 9.5703125 C5.92197266 10.63121094 6.36347656 11.69210937 6.81835938 12.78515625 C7.49608398 14.43837891 7.49608398 14.43837891 8.1875 16.125 C8.65091797 17.23488281 9.11433594 18.34476563 9.59179688 19.48828125 C13 27.73020987 13 27.73020987 13 30 C5.08 30 -2.84 30 -11 30 C-10.22953734 25.37722403 -9.48789792 22.3385951 -7.71484375 18.1640625 C-7.26689453 17.10058594 -6.81894531 16.03710938 -6.35742188 14.94140625 C-5.88884766 13.84699219 -5.42027344 12.75257813 -4.9375 11.625 C-4.46505859 10.50738281 -3.99261719 9.38976562 -3.50585938 8.23828125 C-2.3429918 5.48968515 -1.17421814 2.74376168 0 0 Z " fill="#060606" transform="translate(266,699)"/>
<path d="M0 0 C0.85621447 0.01028713 1.71242893 0.02057425 2.59458929 0.03117311 C3.50496248 0.02634428 4.41533567 0.02151545 5.35329592 0.01654029 C8.41668634 0.00523072 11.47924912 0.02261786 14.5426026 0.03980958 C16.73357374 0.03766467 18.92454377 0.03378838 21.11550909 0.02830446 C27.0762652 0.0185892 33.03672299 0.03394219 38.99744302 0.05421054 C45.22693484 0.07174449 51.45641694 0.06825716 57.6859284 0.06748903 C68.14975794 0.06936372 78.61347892 0.08664189 89.07727057 0.11402833 C99.84552109 0.14219709 110.61367019 0.15637019 121.38195807 0.15504396 C122.37653341 0.15492409 122.37653341 0.15492409 123.39120119 0.1548018 C124.05309901 0.15472109 124.71499683 0.15464038 125.39695215 0.15455723 C137.02982571 0.15333732 148.66265782 0.16354279 160.29551893 0.18014085 C165.25197745 0.18721119 170.20842131 0.19086802 175.16488463 0.19192827 C180.99987962 0.19393454 186.83476767 0.20612291 192.66972739 0.22626054 C194.81435688 0.23211198 196.95899868 0.23456099 199.10363585 0.23340547 C202.02521393 0.23242687 204.94649062 0.24370768 207.86802679 0.25822389 C208.72201054 0.25512669 209.57599428 0.25202948 210.45585632 0.24883842 C217.5412473 0.30720126 217.5412473 0.30720126 220.79479986 2.52564943 C219.63797548 2.52288405 218.48115109 2.52011867 217.28927141 2.51726949 C189.84519351 2.45233371 162.40112395 2.40284682 134.95698504 2.37245344 C131.58106445 2.3687012 128.20514403 2.36481824 124.82922369 2.36085451 C124.1571223 2.36006758 123.48502091 2.35928064 122.79255281 2.35846987 C111.90169052 2.34540636 101.01087561 2.32174735 90.12004145 2.29419104 C78.94986082 2.26616308 67.77969645 2.24970335 56.60948026 2.24338394 C50.33329709 2.23946454 44.05722146 2.23021922 37.78107268 2.20845926 C31.87882411 2.18816063 25.97672784 2.18180219 20.07444769 2.18632638 C17.90358472 2.18549821 15.73271687 2.17949334 13.56188399 2.168033 C10.6068775 2.15319259 7.65245238 2.15666488 4.69743353 2.16488588 C3.39734627 2.15177809 3.39734627 2.15177809 2.07099462 2.1384055 C-2.28917308 2.01984544 -2.28917308 2.01984544 -5.94789088 4.0487209 C-6.36280293 4.53610731 -6.77771499 5.02349373 -7.20520014 5.52564943 C-7.86520014 5.19564943 -8.52520014 4.86564943 -9.20520014 4.52564943 C-7.09792864 0.15790125 -4.60339784 0.05426116 0 0 Z " fill="#C7C8C9" transform="translate(471.20520013570786,299.4743505716324)"/>
<path d="M0 0 C0.66 0.33 1.32 0.66 2 1 C0.4330029 5.55381479 -1.98653057 9.18978948 -4.6875 13.125 C-5.60243973 14.47727147 -6.51649938 15.8301388 -7.4296875 17.18359375 C-7.8740918 17.84085449 -8.31849609 18.49811523 -8.77636719 19.17529297 C-10.32761555 21.48854722 -11.82664318 23.83178228 -13.3125 26.1875 C-17.18656868 32.32527628 -21.15319582 38.40208616 -25.1184082 44.48120117 C-30.36024476 52.52668059 -35.50168442 60.63465569 -40.640625 68.74609375 C-41.84375 70.64322917 -43.046875 72.54036458 -44.25 74.4375 C-45.16652344 75.88672852 -45.16652344 75.88672852 -46.1015625 77.36523438 C-46.69195312 78.29529297 -47.28234375 79.22535156 -47.890625 80.18359375 C-48.68001465 81.42967407 -48.68001465 81.42967407 -49.48535156 82.70092773 C-50.91359382 84.86884478 -52.41848169 86.94207444 -54 89 C-54.92123041 86.52497486 -55.19444899 85.43394427 -54.09472656 82.97973633 C-53.61487305 82.27099365 -53.13501953 81.56225098 -52.640625 80.83203125 C-51.84047974 79.62836914 -51.84047974 79.62836914 -51.02416992 78.40039062 C-50.14595581 77.11938477 -50.14595581 77.11938477 -49.25 75.8125 C-48.04261003 74.00675022 -46.8355848 72.20075651 -45.62890625 70.39453125 C-45.01805176 69.48912598 -44.40719727 68.5837207 -43.77783203 67.65087891 C-41.1955583 63.80051799 -38.69151858 59.90149601 -36.1875 56 C-33.14519441 51.28391124 -30.0709469 46.5938021 -26.9375 41.9375 C-23.45801046 36.7501551 -20.15603731 31.46537512 -16.86669922 26.15673828 C-13.45975298 20.68124216 -9.92053236 15.30354713 -6.31103516 9.9597168 C-4.1077521 6.69301522 -1.99149323 3.40026657 0 0 Z " fill="#282B2D" transform="translate(518,433)"/>
<path d="M0 0 C2.97 0 5.94 0 9 0 C9 3.3 9 6.6 9 10 C6.03 10 3.06 10 0 10 C0 6.7 0 3.4 0 0 Z " fill="#DBDBDB" transform="translate(667,684)"/>
<path d="M0 0 C2.97 0 5.94 0 9 0 C9 3.3 9 6.6 9 10 C6.03 10 3.06 10 0 10 C0 6.7 0 3.4 0 0 Z " fill="#DBDBDB" transform="translate(575,684)"/>
<path d="M0 0 C0.66 0.33 1.32 0.66 2 1 C0.43303445 5.5537231 -1.98628626 9.18996687 -4.6875 13.125 C-5.58557412 14.45118772 -6.48270193 15.77801675 -7.37890625 17.10546875 C-7.82121582 17.75950684 -8.26352539 18.41354492 -8.71923828 19.08740234 C-11.56473375 23.33666111 -14.28084215 27.66915587 -17 32 C-17.66 31.67 -18.32 31.34 -19 31 C-17.11855974 26.93567325 -14.69619595 23.21871877 -12.3125 19.4375 C-11.86986816 18.73238281 -11.42723633 18.02726562 -10.97119141 17.30078125 C-7.33776183 11.51883184 -3.68040992 5.75216385 0 0 Z " fill="#373A3C" transform="translate(518,433)"/>
<path d="M0 0 C0.33 0 0.66 0 1 0 C1.32461953 4.16103213 0.58043843 6.31202648 -1.75 9.75 C-2.26046875 10.52859375 -2.7709375 11.3071875 -3.296875 12.109375 C-5.18880705 14.20959315 -6.24160584 14.64020946 -9 15 C-7.38340534 11.58809167 -5.45729895 8.43782465 -3.4375 5.25 C-2.50744141 3.77273438 -2.50744141 3.77273438 -1.55859375 2.265625 C-1.04425781 1.51796875 -0.52992188 0.7703125 0 0 Z " fill="#292B2D" transform="translate(403,611)"/>
<path d="M0 0 C0.66 0.99 1.32 1.98 2 3 C0.9054851 4.65226769 -0.2009517 6.29664298 -1.3125 7.9375 C-2.23482422 9.31228516 -2.23482422 9.31228516 -3.17578125 10.71484375 C-5 13 -5 13 -8 14 C-6.6744419 10.37723685 -5.05653045 7.36494652 -2.875 4.1875 C-2.33617187 3.39730469 -1.79734375 2.60710937 -1.2421875 1.79296875 C-0.83226562 1.20128906 -0.42234375 0.60960937 0 0 Z " fill="#343739" transform="translate(485,484)"/>
<path d="M0 0 C1.125 1.75 1.125 1.75 2 4 C1.34 5.32 0.68 6.64 0 8 C3.3 8 6.6 8 10 8 C10 8.33 10 8.66 10 9 C8.22925083 9.02705729 6.45838289 9.04642195 4.6875 9.0625 C3.70136719 9.07410156 2.71523438 9.08570313 1.69921875 9.09765625 C-1 9 -1 9 -4 8 C-2.87548273 5.0280615 -1.77706209 2.66559313 0 0 Z " fill="#232527" transform="translate(379,648)"/>
<path d="M0 0 C0.66 0 1.32 0 2 0 C1.55166054 4.9317341 -0.86026095 8.3192924 -4 12 C-4.33 12 -4.66 12 -5 12 C-5.70731186 7.33174173 -3.92277529 4.96719769 -1.2890625 1.35546875 C-0.86367188 0.90816406 -0.43828125 0.46085938 0 0 Z " fill="#191B1C" transform="translate(385,639)"/>
<path d="M0 0 C0.94786377 0.02094727 1.89572754 0.04189453 2.87231445 0.06347656 C4.41435547 0.0828125 4.41435547 0.0828125 5.98754883 0.10253906 C7.0594043 0.13605469 8.13125977 0.16957031 9.2355957 0.20410156 C10.31905273 0.22214844 11.40250977 0.24019531 12.51879883 0.25878906 C15.19611717 0.30596648 17.8716648 0.37177907 20.5480957 0.45410156 C20.5480957 0.78410156 20.5480957 1.11410156 20.5480957 1.45410156 C19.92765381 1.46868408 19.30721191 1.4832666 18.66796875 1.49829102 C15.85654938 1.57276744 13.04631821 1.6694272 10.2355957 1.76660156 C9.25913086 1.78916016 8.28266602 1.81171875 7.27661133 1.83496094 C5.86992187 1.88813477 5.86992187 1.88813477 4.43481445 1.94238281 C3.13870239 1.98165894 3.13870239 1.98165894 1.81640625 2.02172852 C-0.85404416 2.53075528 -1.76201612 3.37740065 -3.4519043 5.45410156 C-4.1119043 5.12410156 -4.7719043 4.79410156 -5.4519043 4.45410156 C-3.85551167 1.75215445 -3.16155348 0.58553116 0 0 Z " fill="#CFD1D1" transform="translate(467.451904296875,299.5458984375)"/>
<path d="M0 0 C0.66 0.33 1.32 0.66 2 1 C0.35821735 5.77609498 -2.26546702 9.79382904 -5 14 C-5.66 13.01 -6.32 12.02 -7 11 C-4.69 7.37 -2.38 3.74 0 0 Z " fill="#3A3D3F" transform="translate(518,433)"/>
<path d="M0 0 C0.66 0.99 1.32 1.98 2 3 C1.66226562 3.47050781 1.32453125 3.94101562 0.9765625 4.42578125 C0.30753906 5.35970703 0.30753906 5.35970703 -0.375 6.3125 C-0.81585938 6.92738281 -1.25671875 7.54226563 -1.7109375 8.17578125 C-2.83410907 9.7652392 -3.92041447 11.38062171 -5 13 C-5.68359375 11.296875 -5.68359375 11.296875 -6 9 C-4.78515625 6.640625 -4.78515625 6.640625 -3.0625 4.25 C-2.49660156 3.45078125 -1.93070312 2.6515625 -1.34765625 1.828125 C-0.90292969 1.22484375 -0.45820313 0.6215625 0 0 Z " fill="#313335" transform="translate(469,509)"/>
<path d="M0 0 C0.66 0.99 1.32 1.98 2 3 C0.68 5.31 -0.64 7.62 -2 10 C-2.66 8.68 -3.32 7.36 -4 6 C-2.68 4.02 -1.36 2.04 0 0 Z " fill="#2B2D2F" transform="translate(425,577)"/>
<path d="M0 0 C0.33 0.99 0.66 1.98 1 3 C0.00390625 4.82421875 0.00390625 4.82421875 -1.4375 6.6875 C-1.91058594 7.31011719 -2.38367188 7.93273437 -2.87109375 8.57421875 C-3.24363281 9.04472656 -3.61617188 9.51523437 -4 10 C-4.33 9.01 -4.66 8.02 -5 7 C-4.00390625 5.17578125 -4.00390625 5.17578125 -2.5625 3.3125 C-2.08941406 2.68988281 -1.61632812 2.06726563 -1.12890625 1.42578125 C-0.75636719 0.95527344 -0.38382812 0.48476563 0 0 Z " fill="#25272A" transform="translate(511,445)"/>
</svg>
