<?xml version="1.0" encoding="UTF-8"?>
<svg version="1.1" xmlns="http://www.w3.org/2000/svg" width="1080" height="1080">
<path d="M0 0 C356.4 0 712.8 0 1080 0 C1080 356.4 1080 712.8 1080 1080 C723.6 1080 367.2 1080 0 1080 C0 723.6 0 367.2 0 0 Z " fill="#FEFEFE" transform="translate(0,0)"/>
<path d="M0 0 C2.16431781 -0.00231956 4.32863698 -0.01119606 6.49290466 -0.02610779 C12.35438282 -0.04745267 18.21140575 0.0241386 24.07210135 0.11372209 C30.22019631 0.19287729 36.36827708 0.18969716 42.51679993 0.19645691 C52.8462839 0.2194759 63.17410073 0.29808764 73.50292969 0.41503906 C86.72688701 0.5645615 99.9497075 0.62730616 113.17441082 0.6606493 C124.5789554 0.68963576 135.98326124 0.75382128 147.387604 0.82610869 C151.0350878 0.8483095 154.68257845 0.86670083 158.33008385 0.88495827 C164.08338458 0.91643244 169.83611496 0.96979899 175.58907509 1.03952599 C177.69033403 1.06222373 179.79167422 1.07852647 181.89303589 1.08766174 C193.89232804 1.14546086 204.27309345 2.087747 215.72387695 5.76635742 C217.61630691 6.2385463 219.51162845 6.69953267 221.41137695 7.14135742 C246.20972331 14.00125501 268.94784045 35.08704398 281.68774414 56.91186523 C291.57262278 74.60402785 296.12601878 92.18795667 296.09887695 112.45385742 C296.09866547 113.11144043 296.09845398 113.76902344 296.09823608 114.4465332 C296.06398485 125.14460453 295.07308292 134.63089151 291.72387695 144.76635742 C291.36165039 145.96647461 290.99942383 147.1665918 290.6262207 148.40307617 C287.02339411 159.50466727 281.23386424 169.13911564 274.72387695 178.76635742 C276.29480826 182.05179979 278.08921525 185.19082417 279.89697266 188.34912109 C289.99923403 206.03987781 296.10709057 223.35677821 296.03955078 243.94140625 C296.03640946 245.93324251 296.06066482 247.92506049 296.08520508 249.91674805 C296.09166915 263.00648611 293.97363111 275.05168643 288.84887695 287.14135742 C288.52274414 287.95217773 288.19661133 288.76299805 287.8605957 289.59838867 C276.74971214 316.61901991 254.56548764 338.749237 227.72665501 350.2265377 C209.38986646 357.49024175 191.44506356 358.63433785 171.93058383 358.46275115 C168.15522708 358.43639247 164.3799153 358.44563958 160.60449219 358.45016479 C154.09169072 358.45328319 147.57925498 358.43475266 141.06654549 358.40073776 C131.65078492 358.35159316 122.23519789 358.33631043 112.819323 358.32880981 C97.53602441 358.31573733 82.25291998 358.27597028 66.96972656 358.21899414 C52.13965819 358.16376538 37.30964289 358.12137093 22.47949219 358.09594727 C21.56255319 358.09437092 20.6456142 358.09279458 19.70088918 358.09117047 C15.10003608 358.08333921 10.49918261 358.07575721 5.8983289 358.06829906 C-32.15995754 358.00628371 -70.21802738 357.90076829 -108.27612305 357.76635742 C-106.95191359 354.34284302 -105.58938284 351.59169775 -103.40112305 348.64135742 C-100.03371931 343.93252386 -96.91315693 339.1058579 -93.83862305 334.20385742 C-83.5474748 317.81205726 -73.11011801 301.51278533 -62.52441406 285.30957031 C-62.03642334 284.5618335 -61.54843262 283.81409668 -61.0456543 283.04370117 C-60.62904541 282.40682373 -60.21243652 281.76994629 -59.78320312 281.11376953 C-58.2835992 278.88221689 -58.2835992 278.88221689 -57.33795053 276.82093954 C-54.41498732 271.2219051 -54.41498732 271.2219051 -51.43069017 270.02818108 C-49.14188691 269.75530057 -46.96880881 269.73773453 -44.66447449 269.80432129 C-43.79857282 269.79748589 -42.93267114 269.79065049 -42.04053003 269.78360796 C-39.13879117 269.77042884 -36.2407531 269.81441894 -33.33935547 269.8581543 C-31.25982755 269.86041088 -29.18029325 269.85914423 -27.10076904 269.85461426 C-21.45399369 269.85231654 -15.80857465 269.89938695 -10.16211486 269.95520592 C-4.26181758 270.00517805 1.63850996 270.00991273 7.53898621 270.01940918 C18.71285765 270.04428548 29.88610378 270.10995036 41.05969971 270.1902051 C53.78016237 270.27958916 66.50065471 270.32360149 79.22135317 270.36376858 C105.38921969 270.44741499 131.55648694 270.58976009 157.72387695 270.76635742 C157.72387695 278.02635742 157.72387695 285.28635742 157.72387695 292.76635742 C169.01609709 286.02239262 180.26606093 279.23685086 191.39624023 272.22973633 C195.17175528 269.85608024 198.95314889 267.49183958 202.73461914 265.12768555 C204.83619139 263.8136376 206.9371137 262.49854957 209.03735352 261.18237305 C213.39038189 258.45736331 217.74435405 255.73826744 222.1496582 253.09838867 C223.07838745 252.53982178 223.07838745 252.53982178 224.02587891 251.9699707 C225.58811278 251.0351012 227.1557497 250.10927623 228.72387695 249.18432617 C229.38387695 248.71639648 230.04387695 248.2484668 230.72387695 247.76635742 C230.72387695 247.10635742 230.72387695 246.44635742 230.72387695 245.76635742 C228.73012669 244.41829247 226.74689991 243.20953909 224.66137695 242.01635742 C223.27276188 241.20226601 221.88478162 240.38709118 220.49731445 239.57104492 C219.73257812 239.12341797 218.9678418 238.67579102 218.17993164 238.21459961 C213.68932793 235.56666112 209.23876407 232.8529047 204.78637695 230.14135742 C203.81982178 229.55314209 202.8532666 228.96492676 201.85742188 228.35888672 C187.04451562 219.32450209 172.35331305 210.09440992 157.72387695 200.76635742 C157.72387695 208.35635742 157.72387695 215.94635742 157.72387695 223.76635742 C98.32387695 223.76635742 38.92387695 223.76635742 -22.27612305 223.76635742 C-20.33435908 219.88282949 -18.14670029 216.24732162 -15.83862305 212.57885742 C-15.39470215 211.87108154 -14.95078125 211.16330566 -14.4934082 210.43408203 C-10.97982303 204.84842989 -7.40818148 199.30169824 -3.81225586 193.76879883 C1.13245378 186.15614211 6.01386491 178.50315865 10.89038086 170.84667969 C14.72465781 164.84035388 18.56558207 158.84539256 22.68730164 153.0307312 C24.83327862 149.86713456 24.83327862 149.86713456 25.87687683 146.37634277 C27.50585105 142.23216321 28.93283501 139.24239639 32.72387695 136.76635742 C41.07961854 134.41240369 50.1776276 135.21259904 58.77616501 135.44823623 C62.25784188 135.5298561 65.73968206 135.53716609 69.22216797 135.55256653 C75.80708598 135.59287417 82.38917719 135.69940237 88.97285366 135.83010989 C96.47189093 135.97573782 103.97106787 136.04697083 111.47116852 136.11215055 C126.8904166 136.2478088 142.30667016 136.47889435 157.72387695 136.76635742 C157.72387695 144.02635742 157.72387695 151.28635742 157.72387695 158.76635742 C160.59075195 156.95135742 163.45762695 155.13635742 166.41137695 153.26635742 C175.91253404 147.26249464 185.46647805 141.3523403 195.0715332 135.51635742 C197.05984163 134.30806881 199.04812218 133.09973432 201.03637695 131.89135742 C202.02629639 131.2899292 203.01621582 130.68850098 204.03613281 130.06884766 C210.73167624 125.99514271 217.39777601 121.87793319 224.02783203 117.69848633 C228.53466479 114.8609635 228.53466479 114.8609635 230.72387695 113.76635742 C229.60398197 110.40667247 229.27763119 110.21131964 226.36450195 108.56713867 C225.66832764 108.1672876 224.97215332 107.76743652 224.25488281 107.35546875 C223.12578491 106.72354614 223.12578491 106.72354614 221.97387695 106.07885742 C220.3964873 105.17359423 218.81966802 104.26733648 217.2434082 103.36010742 C216.46562012 102.91538086 215.68783203 102.4706543 214.88647461 102.01245117 C204.71849071 96.15363543 194.86016632 89.72586447 184.91503906 83.49975586 C175.89059948 77.85620369 166.8172315 72.2981481 157.72387695 66.76635742 C157.72387695 74.02635742 157.72387695 81.28635742 157.72387695 88.76635742 C126.04387695 88.76635742 94.36387695 88.76635742 61.72387695 88.76635742 C61.06387695 90.41635742 60.40387695 92.06635742 59.72387695 93.76635742 C58.24113126 96.11800891 56.73367636 98.41433225 55.16137695 100.70385742 C54.25156094 102.04825909 53.34272706 103.39332586 52.43481445 104.73901367 C51.97816406 105.41464355 51.52151367 106.09027344 51.05102539 106.78637695 C49.08955572 109.71270495 47.18346708 112.67302487 45.28637695 115.64135742 C44.54163326 116.80545062 43.79684073 117.96951256 43.05200195 119.13354492 C42.67366211 119.72490234 42.29532227 120.31625977 41.90551758 120.92553711 C39.79476989 124.21376802 37.66349284 127.48870187 35.53637695 130.76635742 C32.38448237 135.62404946 29.25592312 140.49546351 26.1574707 145.38745117 C25.54605225 146.35231445 24.93463379 147.31717773 24.3046875 148.3112793 C23.12043464 150.18233249 21.93816979 152.05464609 20.75830078 153.9284668 C17.41989553 159.20296219 13.94310906 164.34494995 10.34008789 169.44189453 C8.0978234 172.66675861 6.02481751 175.98032029 3.97387695 179.32885742 C-4.35775628 192.78298494 -13.07066985 205.99207652 -21.71923828 219.24365234 C-26.82393667 227.06686764 -31.90575726 234.90458905 -36.97436523 242.7512207 C-39.19872641 246.19455851 -41.42471294 249.63684416 -43.65112305 253.07885742 C-44.10366455 253.77865723 -44.55620605 254.47845703 -45.02246094 255.19946289 C-47.44116453 258.93772962 -49.86486433 262.67265592 -52.2956543 266.40307617 C-58.288937 275.60224202 -64.24212761 284.82528214 -70.15112305 294.07885742 C-77.22192225 305.15003905 -84.38404716 316.15938115 -91.5715332 327.1550293 C-94.14866056 331.1030319 -96.71447092 335.05830073 -99.27612305 339.01635742 C-99.68451416 339.64670898 -100.09290527 340.27706055 -100.51367188 340.92651367 C-100.90965576 341.53881836 -101.30563965 342.15112305 -101.71362305 342.78198242 C-102.10328467 343.36070949 -102.4929463 343.93943655 -102.89441586 344.5357008 C-104.35623606 346.80232233 -104.35623606 346.80232233 -105.57786655 349.51780415 C-109.5156512 357.15400409 -109.5156512 357.15400409 -114.14843559 358.76544762 C-117.78213561 359.12358287 -121.2724396 359.1275623 -124.92236328 359.01513672 C-126.30268606 359.01203036 -127.68302698 359.01378255 -129.06333923 359.02000427 C-132.79581912 359.02315077 -136.52438172 358.95866459 -140.25595355 358.88169074 C-144.16083369 358.81274966 -148.06581186 358.80645137 -151.97120667 358.79341125 C-159.35960734 358.75927145 -166.74620964 358.66907857 -174.13381964 358.55856687 C-182.54710998 358.43545427 -190.96048795 358.37509557 -199.37445533 358.31991708 C-216.67605013 358.20505243 -233.97589624 358.01167538 -251.27612305 357.76635742 C-250.48033074 356.32645105 -249.68362533 354.8870493 -248.88653564 353.44786072 C-248.44296848 352.64623977 -247.99940132 351.84461882 -247.54239273 351.01870632 C-246.07076453 348.40108054 -244.50779128 345.85960977 -242.88549805 343.33276367 C-242.26666748 342.36677246 -241.64783691 341.40078125 -241.01025391 340.40551758 C-240.35549072 339.39021973 -239.70072754 338.37492187 -239.02612305 337.32885742 C-238.33591064 336.2542627 -237.64569824 335.17966797 -236.93457031 334.07250977 C-231.04874975 324.91862381 -225.09782855 315.80709865 -219.12475586 306.70996094 C-215.35330597 300.96340438 -211.62554468 295.19270221 -207.94433594 289.38793945 C-205.33443783 285.2865073 -202.6807103 281.21395113 -200.02612305 277.14135742 C-198.88796141 275.39275115 -197.74994292 273.64405169 -196.61206055 271.89526367 C-196.05099609 271.03304199 -195.48993164 270.17082031 -194.91186523 269.2824707 C-192.48626572 265.55139181 -190.06782408 261.81570432 -187.65112305 258.07885742 C-186.98040771 257.04184692 -186.98040771 257.04184692 -186.29614258 255.98388672 C-184.955964 253.91148815 -183.61600095 251.8389504 -182.27612305 249.76635742 C-175.90263123 239.90750808 -169.5172095 230.05658011 -163.11694336 220.21508789 C-157.82356885 212.07397214 -152.54810626 203.92133585 -147.27612305 195.76635742 C-145.48473445 192.99534417 -143.69309228 190.22449523 -141.90112305 187.45385742 C-141.44874268 186.75429932 -140.9963623 186.05474121 -140.53027344 185.33398438 C-138.11139284 181.59548277 -135.68754193 177.86030472 -133.2565918 174.12963867 C-127.26330826 164.93047154 -121.31025925 155.70734362 -115.40112305 146.45385742 C-106.09608104 131.88876219 -96.72534538 117.36475772 -87.08862305 103.01635742 C-82.96586379 96.8749963 -79.01537739 90.63302536 -75.08349609 84.36816406 C-70.47229321 77.03729105 -65.73989556 69.7887496 -60.99536133 62.54370117 C-56.59746188 55.81816315 -52.26365138 49.05482263 -47.96362305 42.26635742 C-43.35239648 34.99200361 -38.7437201 27.72188705 -33.81299305 20.65849018 C-32.0994546 18.13046951 -30.67413591 15.61844794 -29.37274456 12.85750866 C-22.60448882 -0.60919584 -14.01105829 -0.34055306 0 0 Z " fill="#010101" transform="translate(486.276123046875,298.233642578125)"/>
<path d="M0 0 C30 0 30 0 38 4 C42.70282774 9.00300824 44.347012 11.8455117 44.29296875 18.546875 C43.67718179 23.70306451 40.82484881 27.76272678 38 32 C38.763125 32.53625 39.52625 33.0725 40.3125 33.625 C44.65172185 37.45966117 46.17316443 41.10519449 46.5625 46.8125 C46.38498437 51.71636933 44.82616468 54.92370012 42.19140625 58.9921875 C30.52481868 69.68136043 14.70601891 65 0 65 C0 43.55 0 22.1 0 0 Z " fill="#0D0D0D" transform="translate(348,687)"/>
<path d="M0 0 C3.59810265 1.81199414 6.9171951 3.90208879 10.1875 6.25 C10.1875 3.94 10.1875 1.63 10.1875 -0.75 C12.1675 -0.75 14.1475 -0.75 16.1875 -0.75 C16.28951175 6.0451159 16.3592207 12.84003192 16.40722656 19.63574219 C16.42725417 21.94408549 16.45448439 24.25237862 16.48925781 26.56054688 C16.53816594 29.89205357 16.56055811 33.22288538 16.578125 36.5546875 C16.59877014 37.57488983 16.61941528 38.59509216 16.64068604 39.64620972 C16.64319651 47.79160152 14.72218699 54.22946202 10.375 61.125 C3.90308016 67.41200784 -2.97386599 68.6364507 -11.7109375 68.51953125 C-19.63118656 67.83124764 -24.42640557 64.25510532 -29.5 58.34765625 C-30.98295776 55.97757197 -31.42968705 54.00146808 -31.8125 51.25 C-26.49673884 50.81428187 -26.49673884 50.81428187 -23.8125 51.25 C-22.3125 53.5 -22.3125 53.5 -20.8125 56.25 C-16.35132637 59.59054389 -11.59705727 60.97729613 -6.0546875 60.69921875 C-0.71110881 59.62864114 3.06930602 56.87318481 6.125 52.4375 C7.38969752 48.64340744 7.84424371 45.23177291 8.1875 41.25 C7.65640625 41.59933594 7.1253125 41.94867187 6.578125 42.30859375 C5.51851562 42.99115234 5.51851562 42.99115234 4.4375 43.6875 C3.74140625 44.13996094 3.0453125 44.59242188 2.328125 45.05859375 C-3.86403053 48.50495769 -12.47187306 48.36717775 -19.1953125 46.63671875 C-25.40484378 43.87286855 -30.40416692 38.68103965 -32.9765625 32.4140625 C-35.0050219 24.73624889 -35.20829192 16.7279819 -31.25 9.6875 C-24.01216094 -0.70835846 -11.91423459 -5.12050014 0 0 Z " fill="#0A0A0A" transform="translate(548.8125,702.75)"/>
<path d="M0 0 C7.02310637 3.64538734 12.76412991 8.38871473 15.62109375 15.921875 C17.61680864 23.90473458 16.9498408 31.01957471 12.86328125 38.1796875 C8.46632341 44.3332992 2.75848114 48.95144644 -4.75 50.4375 C-13.89172601 51.71006981 -21.26803613 49.91421131 -28.75 44.4375 C-35.48925222 37.07295634 -37.06360735 31.1686061 -36.96875 21.41015625 C-36.66936755 17.34176257 -35.74327038 14.9969114 -33.75 11.4375 C-33.234375 10.426875 -32.71875 9.41625 -32.1875 8.375 C-24.42169047 -0.9837961 -11.39091068 -4.64368136 0 0 Z " fill="#0A0A0A" transform="translate(495.75,702.5625)"/>
<path d="M0 0 C1.134375 0.020625 2.26875 0.04125 3.4375 0.0625 C6.81584096 6.63519798 9.894023 13.26767582 12.72265625 20.09375 C13.29710732 21.46859558 13.29710732 21.46859558 13.88316345 22.87121582 C15.09204978 25.7669579 16.29601834 28.6647158 17.5 31.5625 C18.31024237 33.50403335 19.12078695 35.44544062 19.93164062 37.38671875 C22.10960595 42.60816657 24.28690462 47.82970783 26.4375 53.0625 C26.8162326 53.979104 27.19496521 54.89570801 27.58517456 55.84008789 C27.95208405 56.73912842 28.31899353 57.63816895 28.69702148 58.56445312 C29.03080307 59.37885864 29.36458466 60.19326416 29.70848083 61.03234863 C30.4375 63.0625 30.4375 63.0625 30.4375 65.0625 C27.4675 65.0625 24.4975 65.0625 21.4375 65.0625 C20.60010219 62.9390984 19.76769717 60.8137272 18.9375 58.6875 C18.4734375 57.50414062 18.009375 56.32078125 17.53125 55.1015625 C16.4375 52.0625 16.4375 52.0625 16.4375 50.0625 C0.5975 50.5575 0.5975 50.5575 -15.5625 51.0625 C-17.5425 55.6825 -19.5225 60.3025 -21.5625 65.0625 C-24.2025 65.0625 -26.8425 65.0625 -29.5625 65.0625 C-28.95981205 60.14181989 -27.43913603 55.89822467 -25.5 51.375 C-25.19244781 50.64299881 -24.88489563 49.91099762 -24.56802368 49.15681458 C-23.57204143 46.78952317 -22.56734747 44.42604015 -21.5625 42.0625 C-20.53460614 39.62622945 -19.50881257 37.18908125 -18.48306274 34.75190735 C-17.80282762 33.13625499 -17.12182023 31.52092755 -16.44003296 29.90592957 C-13.25150369 22.34832185 -10.15128286 14.75650293 -7.08984375 7.14648438 C-4.2246572 0.07411679 -4.2246572 0.07411679 0 0 Z " fill="#0A0A0A" transform="translate(266.5625,686.9375)"/>
<path d="M0 0 C11.88 0 23.76 0 36 0 C36 2.31 36 4.62 36 7 C26.76 7 17.52 7 8 7 C8 13.6 8 20.2 8 27 C16.58 27 25.16 27 34 27 C34 29.64 34 32.28 34 35 C25.42 35 16.84 35 8 35 C8 41.93 8 48.86 8 56 C17.57 56 27.14 56 37 56 C37 58.64 37 61.28 37 64 C24.79 64 12.58 64 0 64 C0 42.88 0 21.76 0 0 Z " fill="#060606" transform="translate(303,688)"/>
<path d="M0 0 C5.18508092 2.42165738 8.10183618 5.51846138 10.88671875 10.53125 C12.33873055 15.85529328 12.62671239 21.04097048 10.01171875 26.03125 C7.17853391 30.36672858 3.60147387 33.62633163 -1.36328125 35.28125 C-8.41902189 35.97656531 -14.59323463 35.73126237 -20.36328125 31.28125 C-25.25276894 25.13804752 -25.99567052 19.90571686 -25.36328125 12.28125 C-23.55833697 6.76024398 -19.9170539 3.64994447 -15.36328125 0.28125 C-10.88943738 -1.95567193 -4.68734036 -1.42557128 0 0 Z " fill="#FBFBFB" transform="translate(492.36328125,709.71875)"/>
<path d="M0 0 C3.22204615 1.90458728 4.73328235 3.84889377 6.7578125 7.0390625 C7.5703125 10.9140625 7.5703125 10.9140625 7.7578125 14.0390625 C5.4478125 14.0390625 3.1378125 14.0390625 0.7578125 14.0390625 C0.3453125 13.0903125 -0.0671875 12.1415625 -0.4921875 11.1640625 C-2.35032935 7.84595205 -2.84563112 7.31804998 -6.2421875 6.0390625 C-11.23753364 5.34052629 -15.0648149 5.28554404 -19.3671875 8.0390625 C-20.2953125 9.0290625 -20.2953125 9.0290625 -21.2421875 10.0390625 C-20.9121875 12.0190625 -20.5821875 13.9990625 -20.2421875 16.0390625 C-18.66630859 16.40257812 -18.66630859 16.40257812 -17.05859375 16.7734375 C1.195181 21.08468516 1.195181 21.08468516 7.3203125 26.1640625 C9.46200202 30.44744154 9.3933701 34.34213685 8.7578125 39.0390625 C6.67332837 44.08570828 3.04258869 46.92453753 -1.8046875 49.2890625 C-9.31760293 50.92824405 -16.8495017 51.26072703 -23.62109375 47.234375 C-27.57374438 44.31989044 -29.04340056 42.04956276 -29.9921875 37.2265625 C-30.0746875 36.1746875 -30.1571875 35.1228125 -30.2421875 34.0390625 C-27.6021875 34.0390625 -24.9621875 34.0390625 -22.2421875 34.0390625 C-21.8296875 34.9878125 -21.4171875 35.9365625 -20.9921875 36.9140625 C-19.13522447 40.23006791 -18.63977223 40.76572257 -15.2421875 42.0390625 C-10.67210929 42.61125115 -6.51317157 42.50595461 -2.1796875 40.9140625 C-0.00555349 39.09885096 -0.00555349 39.09885096 0.7578125 36.0390625 C1.02413537 33.15299508 1.02413537 33.15299508 -0.23046875 31.46875 C-3.30967307 29.28042227 -6.78945923 28.8708576 -10.4296875 28.1640625 C-16.94019924 26.76675119 -21.98512038 25.33054587 -27.2421875 21.0390625 C-29.84503283 16.84317136 -29.88530895 12.84159283 -29.2421875 8.0390625 C-27.37722074 3.74153039 -25.20148168 1.73873936 -21.1171875 -0.3359375 C-14.12093692 -3.08159249 -6.91400405 -2.99513536 0 0 Z " fill="#080808" transform="translate(620.2421875,702.9609375)"/>
<path d="M0 0 C3.21153975 2.20109538 5.33728343 4.7960011 6.94921875 8.3359375 C7.26171875 11.2734375 7.26171875 11.2734375 6.94921875 13.3359375 C4.63921875 13.3359375 2.32921875 13.3359375 -0.05078125 13.3359375 C-0.46328125 12.3871875 -0.87578125 11.4384375 -1.30078125 10.4609375 C-3.15711439 7.14605689 -3.65009173 6.60215168 -7.05078125 5.3359375 C-9.50421147 5.02155266 -9.50421147 5.02155266 -12.05078125 5.0859375 C-13.31921875 5.07820312 -13.31921875 5.07820312 -14.61328125 5.0703125 C-17.24387594 5.35697987 -18.85463615 5.86692769 -21.05078125 7.3359375 C-22.13301491 10.24598653 -22.13301491 10.24598653 -22.05078125 13.3359375 C-19.76867208 16.51070842 -17.19950683 17.02304846 -13.48828125 17.8359375 C-12.42480469 18.08601562 -11.36132812 18.33609375 -10.265625 18.59375 C-9.20472656 18.83867188 -8.14382813 19.08359375 -7.05078125 19.3359375 C2.12034174 21.50706049 2.12034174 21.50706049 5.51171875 24.8984375 C8.00397634 29.12443949 8.44975357 32.45799818 7.94921875 37.3359375 C6.23512105 42.02715225 4.16067682 44.65591873 -0.05078125 47.3359375 C-7.53693203 50.2716829 -15.84688232 50.60063258 -23.29296875 47.375 C-26.5150149 45.47041272 -28.0262511 43.52610623 -30.05078125 40.3359375 C-30.86328125 36.4609375 -30.86328125 36.4609375 -31.05078125 33.3359375 C-27.80078125 32.9609375 -27.80078125 32.9609375 -24.05078125 33.3359375 C-21.86328125 36.2109375 -21.86328125 36.2109375 -20.05078125 39.3359375 C-17.0427358 41.30650089 -14.60810837 41.60762852 -11.05078125 41.5859375 C-9.78234375 41.59367188 -9.78234375 41.59367188 -8.48828125 41.6015625 C-5.87853688 41.31716728 -4.25982766 40.73631513 -2.05078125 39.3359375 C-0.62017997 36.47473494 -0.66385544 34.49583165 -1.05078125 31.3359375 C-5.65123718 27.70778928 -11.11317023 27.0799535 -16.72460938 26.05078125 C-22.12141706 24.92824525 -25.1102922 23.22161294 -29.05078125 19.3359375 C-31.02567039 15.38615923 -30.48136476 10.64177258 -30.05078125 6.3359375 C-27.90031588 2.12460948 -24.61200242 -0.00944041 -20.38671875 -1.93359375 C-13.43393432 -4.10779223 -6.44612956 -3.26357008 0 0 Z " fill="#080808" transform="translate(765.05078125,703.6640625)"/>
<path d="M0 0 C4.19256103 3.10755152 6.29728548 7.16311985 8.1796875 11.90234375 C8.1796875 12.23234375 8.1796875 12.56234375 8.1796875 12.90234375 C3.08891481 13.51674735 3.08891481 13.51674735 0.1796875 12.90234375 C-1.68286232 11.29684266 -2.991243 9.64036663 -4.3984375 7.62890625 C-6.77035274 4.74872345 -8.92209699 4.01129514 -12.58984375 3.56640625 C-19.25064559 3.48090173 -23.56961443 3.63615157 -28.8203125 7.90234375 C-32.76171044 12.85435655 -33.46229563 16.89438651 -33.203125 23.18359375 C-32.4134252 28.79207395 -30.29011737 32.43253888 -26.3203125 36.40234375 C-20.1537606 39.04515171 -13.72241521 38.85212282 -7.3828125 36.77734375 C-4.60184152 34.9354882 -4.60184152 34.9354882 -2.4453125 31.71484375 C0.1796875 28.90234375 0.1796875 28.90234375 2.26953125 28.515625 C4.4921875 28.52734375 4.4921875 28.52734375 8.1796875 28.90234375 C5.83240429 35.29217028 2.96183272 40.61013453 -3.01171875 44.23046875 C-10.26843281 47.53850534 -17.9232182 48.46113715 -25.59375 46.01953125 C-32.62672258 42.83040554 -37.47735015 38.32127056 -40.6953125 31.27734375 C-43.08136231 23.86046604 -43.0307889 15.6729234 -39.8828125 8.52734375 C-36.35726172 2.37766142 -31.17219779 -1.45737196 -24.8828125 -4.53515625 C-15.58966143 -6.24206155 -8.12116101 -4.89709494 0 0 Z " fill="#090909" transform="translate(723.8203125,706.09765625)"/>
<path d="M0 0 C4.12593192 2.87855716 7.06537651 6.00862953 8.6875 10.875 C9.46245324 17.31600476 8.59246706 22.59672648 4.6875 27.875 C-0.41295989 31.93454971 -4.57694547 33.23934461 -10.96484375 33.15625 C-15.98529824 32.55479788 -19.27541428 29.9939609 -22.6875 26.3125 C-26.24938971 20.96966543 -25.87957743 15.07997772 -25.3125 8.875 C-23.22797079 4.0110985 -20.31784706 1.67285998 -15.59375 -0.43359375 C-10.24464978 -2.05481077 -5.25205113 -1.78371548 0 0 Z " fill="#FBFBFB" transform="translate(548.3125,710.125)"/>
<path d="M0 0 C2.64 0 5.28 0 8 0 C8 18.81 8 37.62 8 57 C17.24 57 26.48 57 36 57 C36 59.64 36 62.28 36 65 C24.12 65 12.24 65 0 65 C0 43.55 0 22.1 0 0 Z " fill="#070707" transform="translate(422,687)"/>
<path d="M0 0 C0 3.3 0 6.6 0 10 C5.28 10 10.56 10 16 10 C16 12.31 16 14.62 16 17 C10.72 17 5.44 17 0 17 C0.02814446 21.18329001 0.07130807 25.36090173 0.15258789 29.54272461 C0.17571503 30.96350702 0.19015126 32.38445958 0.19555664 33.80541992 C0.20488661 35.85442466 0.24595166 37.9007735 0.29296875 39.94921875 C0.3086792 41.17987061 0.32438965 42.41052246 0.34057617 43.6784668 C1.17227263 47.86774123 2.70987239 49.36152834 6 52 C8.64009148 52.80095024 8.64009148 52.80095024 11.3125 52.8125 C12.19550781 52.86019531 13.07851563 52.90789063 13.98828125 52.95703125 C14.65214844 52.97121094 15.31601562 52.98539063 16 53 C16 55.31 16 57.62 16 60 C9.11348266 60.5164888 3.66217112 60.62873965 -2.28125 56.875 C-9.16809522 49.36207794 -8.48800837 41.06075134 -8.25 31.5 C-8.22990166 30.09117126 -8.21165678 28.68231479 -8.1953125 27.2734375 C-8.14839203 23.84824336 -8.08274777 20.42448476 -8 17 C-10.97 17 -13.94 17 -17 17 C-4.94545455 0 -4.94545455 0 0 0 Z " fill="#070707" transform="translate(646,692)"/>
<path d="M0 0 C3.56331377 -0.10807017 7.1233422 -0.18735316 10.6875 -0.25 C12.19860352 -0.30027344 12.19860352 -0.30027344 13.74023438 -0.3515625 C21.2503749 -0.45070627 21.2503749 -0.45070627 25.14453125 1.890625 C28.26924084 5.44292643 28.39254011 8.134018 28.35546875 12.73828125 C27.78672178 16.35701199 25.84834388 17.88030223 23 20 C20.11734851 20.96088383 18.32337729 21.11670941 15.33203125 21.09765625 C14.52741455 21.09515869 13.72279785 21.09266113 12.89379883 21.09008789 C11.36855591 21.07643188 11.36855591 21.07643188 9.8125 21.0625 C4.9553125 21.0315625 4.9553125 21.0315625 0 21 C0 14.07 0 7.14 0 0 Z " fill="#FDFDFD" transform="translate(357,723)"/>
<path d="M0 0 C3.196875 -0.061875 6.39375 -0.12375 9.6875 -0.1875 C11.18543091 -0.22846802 11.18543091 -0.22846802 12.71362305 -0.27026367 C17.66001911 -0.31661277 20.97039056 -0.20609799 25 3 C25.8971875 3.61875 25.8971875 3.61875 26.8125 4.25 C28.83625397 7.23237427 28.47370063 9.50645782 28 13 C25.98014799 16.47476458 23.8880685 18.70397717 20 20 C18.44578271 20.08106686 16.88832973 20.10756898 15.33203125 20.09765625 C14.52741455 20.09515869 13.72279785 20.09266113 12.89379883 20.09008789 C11.36855591 20.07643188 11.36855591 20.07643188 9.8125 20.0625 C4.9553125 20.0315625 4.9553125 20.0315625 0 20 C0 13.4 0 6.8 0 0 Z " fill="#F2F2F2" transform="translate(356,695)"/>
<path d="M0 0 C0.495 0.99 0.495 0.99 1 2 C70.63 2 140.26 2 212 2 C212 2.33 212 2.66 212 3 C142.37 3 72.74 3 1 3 C0.34 4.65 -0.32 6.3 -1 8 C-1.70049775 9.22550882 -2.43871809 10.43030845 -3.21484375 11.609375 C-3.64756592 12.27195312 -4.08028809 12.93453125 -4.52612305 13.6171875 C-4.99187744 14.32101562 -5.45763184 15.02484375 -5.9375 15.75 C-6.9427941 17.28640222 -7.94800015 18.82286205 -8.953125 20.359375 C-9.46423828 21.13732422 -9.97535156 21.91527344 -10.50195312 22.71679688 C-12.74485253 26.1352446 -14.96716786 29.56686734 -17.1875 33 C-17.62763428 33.6796582 -18.06776855 34.35931641 -18.52124023 35.05957031 C-22.70366143 41.52510658 -26.85197477 48.01236217 -31 54.5 C-35.73505504 61.90553897 -40.47540372 69.30737612 -45.25 76.6875 C-45.67925781 77.35136719 -46.10851562 78.01523437 -46.55078125 78.69921875 C-49.00446143 82.48624925 -51.48897398 86.25073868 -54 90 C-54.66 89.01 -55.32 88.02 -56 87 C-50.00752125 77.25301982 -43.83494212 67.63166826 -37.5625 58.0625 C-37.00625946 57.21381851 -37.00625946 57.21381851 -36.43878174 56.34799194 C-34.61221249 53.56151408 -32.78516034 50.77535326 -30.95800781 47.98925781 C-22.98278268 35.81361485 -15.14158589 23.55163001 -7.30444336 11.28686523 C-6.64581299 10.25634033 -5.98718262 9.22581543 -5.30859375 8.1640625 C-4.71876709 7.24061035 -4.12894043 6.3171582 -3.52124023 5.36572266 C-2.36416284 3.56631968 -1.18667981 1.78001971 0 0 Z " fill="#BBBBBB" transform="translate(432,566)"/>
<path d="M0 0 C2.64 0 5.28 0 8 0 C8 16.5 8 33 8 50 C5.36 50 2.72 50 0 50 C0 33.5 0 17 0 0 Z " fill="#0C0C0C" transform="translate(667,702)"/>
<path d="M0 0 C2.64 0 5.28 0 8 0 C8 16.5 8 33 8 50 C5.36 50 2.72 50 0 50 C0 33.5 0 17 0 0 Z " fill="#0C0C0C" transform="translate(575,702)"/>
<path d="M0 0 C3.03619365 1.51809682 3.3447585 3.82710701 4.6015625 6.93359375 C5.09140625 8.13951172 5.58125 9.34542969 6.0859375 10.58789062 C6.46443848 11.53498901 6.46443848 11.53498901 6.85058594 12.5012207 C7.62169019 14.42922444 8.40368199 16.35252553 9.1875 18.27539062 C13 27.7209098 13 27.7209098 13 30 C4.75 30 -3.5 30 -12 30 C-10.37745369 25.74904842 -8.75207407 21.49921824 -7.125 17.25 C-6.66480469 16.0434375 -6.20460938 14.836875 -5.73046875 13.59375 C-5.28574219 12.43359375 -4.84101563 11.2734375 -4.3828125 10.078125 C-3.97434082 9.00981445 -3.56586914 7.94150391 -3.14501953 6.84082031 C-2.19619371 4.48676119 -1.17927415 2.24488333 0 0 Z " fill="#F7F7F7" transform="translate(266,699)"/>
<path d="M0 0 C0.495 1.485 0.495 1.485 1 3 C41.92 3.33 82.84 3.66 125 4 C125.33 11.59 125.66 19.18 126 27 C125.34 27 124.68 27 124 27 C124 19.74 124 12.48 124 5 C82.75 5 41.5 5 -1 5 C-1.66 6.65 -2.32 8.3 -3 10 C-3.89557194 11.54589495 -4.83805868 13.0650674 -5.8125 14.5625 C-6.43898438 15.53058594 -7.06546875 16.49867188 -7.7109375 17.49609375 C-8.47372312 18.66421613 -9.23676567 19.83217075 -10 21 C-11.44265134 23.21546274 -12.88430726 25.43157143 -14.32592773 27.64770508 C-15.41615984 29.32360042 -16.50682965 30.99921107 -17.59790039 32.67456055 C-22.18163726 39.72033003 -26.72210711 46.79323759 -31.25 53.875 C-31.93312256 54.94339111 -32.61624512 56.01178223 -33.32006836 57.11254883 C-35.21366598 60.0748492 -37.10688504 63.03739116 -39 66 C-44.57765141 74.72771427 -50.22182452 83.40358635 -56 92 C-56.99 91.67 -57.98 91.34 -59 91 C-58.38253906 90.07960938 -57.76507813 89.15921875 -57.12890625 88.2109375 C-52.56154807 81.38946389 -48.03551226 74.54695186 -43.61206055 67.63110352 C-40.22657201 62.34068008 -36.80243809 57.07582229 -33.375 51.8125 C-29.99437552 46.62051666 -26.62008576 41.42646563 -23.3125 36.1875 C-20.67334388 32.01425313 -17.94059709 27.91084251 -15.1875 23.8125 C-9.93613295 15.99174668 -4.94960261 8.01414381 0 0 Z " fill="#8E8E8E" transform="translate(520,430)"/>
<path d="M0 0 C1 3 1 3 -0.51953125 6.046875 C-1.27236948 7.28828781 -2.03760503 8.52223416 -2.8125 9.75 C-3.2154126 10.40379639 -3.6183252 11.05759277 -4.03344727 11.73120117 C-16.01290392 31.01290392 -16.01290392 31.01290392 -20 35 C-20 30.19383645 -18.28176025 28.00811703 -15.625 24.25 C-14.71139862 22.92204474 -13.8000154 21.59256125 -12.890625 20.26171875 C-12.41689453 19.56997559 -11.94316406 18.87823242 -11.45507812 18.16552734 C-9.0058416 14.52043875 -6.68941619 10.79412858 -4.375 7.0625 C-3.93752441 6.35834961 -3.50004883 5.65419922 -3.04931641 4.92871094 C-2.03093697 3.28700952 -1.01515951 1.64369444 0 0 Z " fill="#C4C4C4" transform="translate(520,430)"/>
<path d="M0 0 C2.64 0 5.28 0 8 0 C8 2.64 8 5.28 8 8 C5.36 8 2.72 8 0 8 C0 5.36 0 2.72 0 0 Z " fill="#030303" transform="translate(667,685)"/>
<path d="M0 0 C2.64 0 5.28 0 8 0 C8 2.64 8 5.28 8 8 C5.36 8 2.72 8 0 8 C0 5.36 0 2.72 0 0 Z " fill="#030303" transform="translate(575,685)"/>
<path d="M0 0 C0.66 0.99 1.32 1.98 2 3 C-1.3 8.28 -4.6 13.56 -8 19 C-8.66 18.01 -9.32 17.02 -10 16 C-6.7 10.72 -3.4 5.44 0 0 Z " fill="#CDCDCD" transform="translate(432,566)"/>
<path d="M0 0 C0.66 0 1.32 0 2 0 C1.46014954 4.61872062 -0.43965817 7.52395069 -3.0625 11.3125 C-3.79597656 12.38113281 -4.52945312 13.44976563 -5.28515625 14.55078125 C-6.13400391 15.76314453 -6.13400391 15.76314453 -7 17 C-7.66 16.01 -8.32 15.02 -9 14 C-7.55008333 11.66103978 -6.09074592 9.32900732 -4.625 7 C-4.2125 6.33226562 -3.8 5.66453125 -3.375 4.9765625 C-2.30339045 3.28272806 -1.15669501 1.63691136 0 0 Z " fill="#D8D8D8" transform="translate(385,639)"/>
<path d="M0 0 C1 3 1 3 -0.65234375 6.35546875 C-1.40377702 7.63889017 -2.16596501 8.91606134 -2.9375 10.1875 C-3.51661133 11.16879883 -3.51661133 11.16879883 -4.10742188 12.16992188 C-5.06253088 13.78535316 -6.03010066 15.39340525 -7 17 C-7.66 16.01 -8.32 15.02 -9 14 C-6.03 9.38 -3.06 4.76 0 0 Z " fill="#BEBEBE" transform="translate(520,430)"/>
<path d="M0 0 C0.66 0.99 1.32 1.98 2 3 C0.02 5.97 -1.96 8.94 -4 12 C-4.66 11.67 -5.32 11.34 -6 11 C-4.18690997 7.22272911 -2.0926741 3.62730178 0 0 Z " fill="#C3C3C3" transform="translate(485,484)"/>
<path d="M0 0 C0.66 1.32 1.32 2.64 2 4 C0.02 6.97 0.02 6.97 -2 10 C-2.66 8.68 -3.32 7.36 -4 6 C-2.68 4.02 -1.36 2.04 0 0 Z " fill="#D0D0D0" transform="translate(390,631)"/>
<path d="M0 0 C0.66 0 1.32 0 2 0 C1.58578031 4.83256305 -0.46413986 6.82679218 -4 10 C-3.43697042 6.05879291 -2.3208055 3.2491277 0 0 Z " fill="#E1E1E1" transform="translate(403,611)"/>
<path d="M0 0 C0.66 0.99 1.32 1.98 2 3 C0.35 5.31 -1.3 7.62 -3 10 C-4 6 -4 6 -2.0625 2.75 C-1.381875 1.8425 -0.70125 0.935 0 0 Z " fill="#D8D8D8" transform="translate(432,566)"/>
<path d="M0 0 C0.33 0.99 0.66 1.98 1 3 C-0.9375 6.1875 -0.9375 6.1875 -3 9 C-3.66 8.01 -4.32 7.02 -5 6 C-2.25 1.125 -2.25 1.125 0 0 Z " fill="#E2E2E2" transform="translate(381,647)"/>
<path d="M0 0 C0.33 0.99 0.66 1.98 1 3 C-0.9375 6.1875 -0.9375 6.1875 -3 9 C-3.99 8.67 -4.98 8.34 -6 8 C-4.02 5.36 -2.04 2.72 0 0 Z " fill="#D2D2D2" transform="translate(467,513)"/>
<path d="M0 0 C0.33 0.99 0.66 1.98 1 3 C0.00390625 4.82421875 0.00390625 4.82421875 -1.4375 6.6875 C-1.91058594 7.31011719 -2.38367188 7.93273437 -2.87109375 8.57421875 C-3.24363281 9.04472656 -3.61617188 9.51523437 -4 10 C-4.33 9.01 -4.66 8.02 -5 7 C-4.00390625 5.17578125 -4.00390625 5.17578125 -2.5625 3.3125 C-2.08941406 2.68988281 -1.61632812 2.06726563 -1.12890625 1.42578125 C-0.75636719 0.95527344 -0.38382812 0.48476563 0 0 Z " fill="#CFCFCF" transform="translate(511,445)"/>
</svg>
